<?xml version="1.0" encoding="utf-8"?>
<!-- Generator: Adobe Illustrator 21.0.0, SVG Export Plug-In . SVG Version: 6.00 Build 0)  -->
<svg version="1.1" id="Layer_1" xmlns="http://www.w3.org/2000/svg" xmlns:xlink="http://www.w3.org/1999/xlink" x="0px" y="0px"
	 viewBox="0 0 481 500" style="enable-background:new 0 0 481 500;" xml:space="preserve">
<style type="text/css">
	.st0{opacity:0.4;fill:#D6D8E5;enable-background:new    ;}
	.st1{fill:#B1B4C4;}
	.st2{fill:#D6D8E5;}
	.st3{fill:#9EA1AF;}
	.st4{fill:#C4C7D6;}
	.st5{fill:#E4E7F2;}
	.st6{fill:#FFFFFF;}
	.st7{fill:#FFCEA9;}
	.st8{fill:#EDEDED;}
	.st9{fill:#38226D;}
	.st10{fill:#9C73FF;}
	.st11{fill:#1A2C79;}
	.st12{fill:#F4F4F4;}
	.st13{fill:#3A2C6D;}
	.st14{fill:#E80566;}
	.st15{fill:#E9EAF2;}
	.st16{fill:#C10266;}
	.st17{fill:#E28C10;}
</style>
<title>Degital_marketing_SVG</title>
<g id="Слой_2">
	<g id="Слой_1-2">
		<g id="monitor">
			<path class="st0" d="M297,395.4l-60-34.6c-4.3-2.5-3.8-6.9,1.2-9.8l38.9-22.5l75.7,43.7l-38.9,22.4
				C308.9,397.6,301.3,397.9,297,395.4z"/>
			<path class="st1" d="M301.4,392.9l-60-34.7c-4.3-2.5-3.8-6.9,1.2-9.8l38.9-22.5l75.7,43.7l-38.9,22.5
				C313.3,395,305.7,395.4,301.4,392.9z"/>
			<polygon class="st1" points="357.2,369.7 357.2,367.4 353.7,369.4 			"/>
			<polygon class="st1" points="238.4,354.1 238.4,351.8 242,353.2 			"/>
			<path class="st2" d="M301.4,390.6l-60-34.6c-4.3-2.5-3.8-6.9,1.2-9.8l38.9-22.5l75.7,43.7l-38.9,22.5
				C313.3,392.8,305.7,393.1,301.4,390.6z"/>
			<polygon class="st3" points="281.7,323.8 272.3,292.7 348.8,336.6 357.2,367.4 			"/>
			<path class="st3" d="M355,368.7l2.2-1.3l-3.3-2.6L355,368.7z"/>
			<polygon class="st1" points="279.3,325 269.9,293.9 346.4,337.8 355,368.7 			"/>
			<path class="st4" d="M473.5,421.1l-296.2-171c-4.1-2.4-7.5-8.8-7.5-14.4V6.6c0-5.5,3.4-8.1,7.5-5.7l296.2,171
				c4.1,2.4,7.5,8.8,7.5,14.4v229.1C481,420.9,477.7,423.5,473.5,421.1z"/>
			<polygon class="st4" points="475,423.5 478.3,421.5 476.9,411.8 			"/>
			<path class="st1" d="M169.3,2.3l3.2-1.9l4.6,2.7c0,0-4.9,0.8-5.1,0.7S169.3,2.3,169.3,2.3z"/>
			<path class="st5" d="M470.8,422.6l-296.2-171c-4.2-2.4-7.5-8.8-7.5-14.4V8.2c0-5.5,3.4-8.1,7.5-5.7l296.2,171
				c4.2,2.4,7.5,8.8,7.5,14.4V417C478.3,422.5,475,425,470.8,422.6z"/>
			<path class="st2" d="M470.3,423L174.1,252c-4.2-2.4-7.5-8.8-7.5-14.4V8.5c0-5.5,3.4-8.1,7.5-5.7l296.2,171
				c4.1,2.4,7.5,8.8,7.5,14.4v229.1C477.8,422.8,474.4,425.4,470.3,423z"/>
			<path class="st6" d="M473.7,409L170.3,233.9l0.1-224.5c0-2.3,1.6-3.2,3.6-2.1l296.2,171c2.1,1.4,3.5,3.7,3.6,6.2L473.7,409z"/>
		</g>
		<ellipse class="st0" cx="381.1" cy="481.3" rx="23.3" ry="13.4"/>
		<ellipse class="st0" cx="104" cy="486.6" rx="23.3" ry="13.4"/>
		<ellipse class="st0" cx="23.3" cy="364.6" rx="23.3" ry="13.4"/>
		<g id="Men_4">
			<path class="st7" d="M87.7,396.6c0,0,0.7,9.9,2,11.3s5.7,2.4,5.7,2.4l3.4,5.5c0,0-3.1-17.7-3.7-18.1S87.7,396.6,87.7,396.6z"/>
			<path id="_Контур_" class="st8" d="M94.2,385.7c-1.7-0.8-3.7-0.2-4.7,1.4c-1.2,2.1-2.5,9.1-2.7,10.3c0,0,1.7,2.4,4.4,2
				L94.2,385.7z"/>
			<path class="st9" d="M104.2,484.2c1.8,0.5,3.8,0.3,5.5-0.7c1.3,0,8.5-3,9.4-0.5c0.8,2.3-2.2,4.3-3.9,4.7c-3.6,0.9-6.3,2.7-7.7,3
				c-1.1,0.2-2.5,0.4-3.3-0.5C103.1,489.4,103.2,485.6,104.2,484.2z"/>
			<path class="st10" d="M107.5,490.2c1.4-0.3,4.1-2.1,7.7-3c1.4-0.3,3.8-1.9,4-3.6c0.3,2.1-2.5,3.9-4,4.3c-3.6,0.9-6.3,2.7-7.7,3
				c-1.1,0.2-2.5,0.4-3.3-0.5c-0.2-0.2-0.4-0.5-0.5-0.9C104.7,490.3,106.1,490.6,107.5,490.2z"/>
			<path class="st9" d="M93.1,480.8c1.8,0.5,3.8,0.3,5.5-0.7c1.3,0,8.5-3,9.4-0.5c0.8,2.3-2.2,4.3-3.9,4.7c-3.6,0.9-6.3,2.7-7.7,3
				c-1.1,0.2-2.5,0.4-3.3-0.5C92,485.9,92.1,482.1,93.1,480.8z"/>
			<path class="st10" d="M96.3,486.7c1.4-0.3,4.1-2.1,7.7-3c1.4-0.3,3.8-1.9,4-3.7c0.3,2.1-2.5,3.9-4,4.3c-3.6,0.9-6.3,2.7-7.7,3
				c-1.1,0.2-2.5,0.4-3.3-0.5c-0.2-0.2-0.4-0.5-0.5-0.9C93.6,486.9,95,487.1,96.3,486.7z"/>
			<path id="_Контур_2" class="st11" d="M92.3,460.7c0.3-2.7,0.9-5.3,1.6-7.8c0,0-0.5-6.8-0.7-13.1
				c-0.3-7.3-2.8-13.7-0.8-19.5l22.1,4.9c0,0-1.1,29-1.4,32.5c-0.2,2.7-0.5,5.4-1,8.1c-1,5.6-2.1,18.2-2.1,18.2
				c-2.4,1.4-5.8,0.2-5.8,0.2s0-15.8,0.1-19.8c0.2-5,0.3-4.6,0.3-4.6l-0.7-12.3l-0.5-6.1c0,0-0.6,4.5-1,8.5
				c-0.3,3.5-1.2,6.7-2.1,13.2c-0.8,5.7-1.7,17.2-1.7,17.2c-2.4,1.4-5.6,0.4-5.6,0.4S91.6,465.6,92.3,460.7z"/>
			<path id="_Контур_3" class="st7" d="M95.4,385.8c1.7,0.1,3,0.5,3.2,0c0.2-0.9,0.3-1.8,0.4-2.7c-0.2-0.5-0.4-1-0.4-1
				c-2.1-1.3-2.8-3.6-3.1-6.3c-0.5-4.6,2-8.6,6.6-9.1c4.3-0.5,7.5,2.6,8.4,6.8c0.4,2.1,1.4,6,0.1,9.4c-0.7,1.9-1.6,3.4-2.5,3.7
				c-0.9,0-1.7-0.1-2.6-0.2l0,0l-0.4,2.1c-0.2,0.8-0.1,1.3,1.5,2.3s-2.5,3.1-5.2,2.9s-5.7-1.8-6.5-3.6
				C94.1,388,94.2,385.7,95.4,385.8z"/>
			<path id="_Контур_4" class="st12" d="M97.8,386c-0.5,1.2,0.7,2.6,3.9,3.6s3.5-0.3,3.5-0.3c2.1,1,4.2,2,6.2,3.2
				c1.9,1.3,2.8,5.2,3,11.8c0.3,7.6,0.3,18.9,0.1,20.8c0,0-3.6,3.6-8.2,3.2s-12.3-4.4-14.2-7.6c0-6.7,0.8-7.8-0.3-11.6
				c-2.5-8.8-3.8-12.4-2.6-18.2c1-4.8,2.4-5.4,4.3-5.4C95.1,385.7,96.5,385.8,97.8,386z"/>
			<path class="st7" d="M110.6,431.1l-2.3-26.5l4.9-2.6l1.9,1.6l-0.6,23.8l0,0v0.6l0,0v0.8c0,0,0.1,2-3.7,4.4c0,0-0.1-0.6-0.1-1.2
				l0,0L110.6,431.1L110.6,431.1z"/>
			<path id="_Контур_5" class="st8" d="M110,391c2.6,0,4.2,1.3,4.8,5.2s1,7.1,1,7.1c-1.2,1.3-2.8,2.1-4.5,2.3
				c-3.1,0.4-4-1.2-4-1.2s-0.3-4.1-0.5-6.9S106.8,391,110,391z"/>
			<path class="st13" d="M110.3,372.8c0,0,4-6-4.7-7.3c-6.2-0.9-10.2,3.1-10.7,7.5c-0.4,4.1,2.1,8.5,4,10.2c1.8,0.5,3.7,0.2,5.4-0.6
				c0.1-1.1,0.1-2.3,0.1-3.4C104.5,379.1,101.4,372.7,110.3,372.8z"/>
		</g>
		<path class="st0" d="M445,367.5L205.7,229.4c-4.9-2.8-8.9-10.5-8.9-17.1V36.1c0-6.6,4-9.6,8.9-6.8L445,167.5
			c4.9,2.9,8.9,10.5,8.9,17.1v176.2C453.9,367.4,449.9,370.4,445,367.5z"/>
		<path class="st6" d="M431.6,342.8L192.3,204.6c-4.9-2.9-8.9-10.5-8.9-17.1V11.3c0-6.6,4-9.6,8.9-6.8l239.3,138.2
			c4.9,2.9,8.9,10.5,8.9,17.1V336C440.5,342.6,436.5,345.6,431.6,342.8z"/>
		<path class="st11" d="M440.5,173.7L183.3,25.2V11.3c0-6.6,4-9.6,8.9-6.8l239.3,138.2c4.9,2.9,8.9,10.5,8.9,17.1L440.5,173.7z"/>
		<ellipse transform="matrix(0.866 -0.5 0.5 0.866 15.4617 102.4771)" class="st6" cx="199" cy="22.4" rx="2.6" ry="4.4"/>
		<ellipse transform="matrix(0.867 -0.4983 0.4983 0.867 11.6232 116.4429)" class="st6" cx="224" cy="36.4" rx="2.6" ry="4.4"/>
		<ellipse transform="matrix(0.866 -0.5 0.5 0.866 13.5979 109.4364)" class="st6" cx="211" cy="29.3" rx="2.6" ry="4.4"/>
		<polygon class="st14" points="219.9,193.8 207.4,186.6 207.4,135 219.9,142.2 		"/>
		<polygon class="st14" points="266.4,220.6 253.9,213.4 253.9,125.8 266.4,133 		"/>
		<polygon class="st11" points="243.2,207.2 230.7,200 230.7,130.9 243.2,138.1 		"/>
		<polygon class="st11" points="289.6,234 277.1,226.8 277.1,105.1 289.6,112.3 		"/>
		<polygon class="st15" points="418.2,201 319.1,143.8 319.1,129.4 418.2,186.6 		"/>
		<polygon class="st15" points="418.2,219.6 319.1,162.4 319.1,155.1 418.2,212.4 		"/>
		<polygon class="st15" points="418.2,233.3 319.1,176.1 319.1,168.9 418.2,226.1 		"/>
		<polygon class="st15" points="404.8,239.3 319.1,189.9 319.1,182.6 404.8,232.1 		"/>
		<polygon class="st15" points="392.3,245.9 319.1,203.6 319.1,196.4 392.3,238.7 		"/>
		<polygon class="st15" points="361,257.7 330.7,240.2 330.7,233 361,250.5 		"/>
		<polygon class="st14" points="328,238.7 319.1,233.5 319.1,226.3 328,231.4 		"/>
		<polygon class="st15" points="361,275.3 330.7,257.7 330.7,250.5 361,268 		"/>
		<polygon class="st11" points="328,256.2 319.1,251 319.1,243.8 328,249 		"/>
		<polygon class="st15" points="415.5,289.2 385.1,271.6 385.1,264.4 415.5,282 		"/>
		<polygon class="st11" points="382.5,270.1 373.5,265 373.5,257.7 382.5,262.9 		"/>
		<polygon class="st15" points="415.5,306.7 385.1,289.2 385.1,282 415.5,299.5 		"/>
		<polygon class="st14" points="382.5,287.6 373.5,282.5 373.5,275.3 382.5,280.4 		"/>
		<polygon class="st0" points="162.4,352.6 76,302.3 84.5,296.5 170.9,346.8 		"/>
		<path class="st4" d="M167.1,345.1l-72.3-41.8c-4.9-2.9-8.9-10.5-8.9-17.1V169.9c0-6.6,4-9.6,8.9-6.8l72.3,41.8
			c4.9,2.9,8.9,10.5,8.9,17.1v116.4C176.1,345,172.1,348,167.1,345.1z"/>
		<polygon class="st4" points="167.6,348.8 173.2,345.5 167.6,336.6 		"/>
		<polygon class="st4" points="84.3,165.5 89.4,162.4 89.2,170.6 		"/>
		<path class="st2" d="M162,348.2l-72.4-41.8c-4.9-2.8-8.9-10.5-8.9-17.1V173c0-6.6,4-9.6,8.9-6.8L162,208
			c4.9,2.9,8.9,10.5,8.9,17.1v116.4C170.9,348,166.9,351.1,162,348.2z"/>
		<polygon class="st11" points="157.5,238.4 94.1,201.8 94.1,183.2 157.5,219.8 		"/>
		<polygon class="st11" points="111.9,249.2 95,239.4 95,220.9 111.9,230.7 		"/>
		<polygon class="st11" points="134.3,262.1 117.3,252.3 117.3,233.8 134.3,243.6 		"/>
		<polygon class="st11" points="156.6,275 139.6,265.2 139.6,246.6 156.6,256.4 		"/>
		<polygon class="st11" points="111.9,277.1 95,267.3 95,248.7 111.9,258.5 		"/>
		<polygon class="st11" points="134.3,290 117.3,280.2 117.3,261.6 134.3,271.4 		"/>
		<polygon class="st11" points="156.6,302.9 139.6,293 139.6,274.5 156.6,284.3 		"/>
		<polygon class="st11" points="111.9,304.9 95,295.1 95,276.5 111.9,286.4 		"/>
		<polygon class="st11" points="134.3,317.8 117.3,308 117.3,289.4 134.3,299.2 		"/>
		<polygon class="st11" points="156.6,330.7 139.6,320.9 139.6,302.3 156.6,312.1 		"/>
		<polygon class="st0" points="415.4,466.7 380.8,446.7 388.9,442 423.5,462 		"/>
		<polygon class="st16" points="427.3,460 391.6,439.4 396,398.7 422.8,414.1 		"/>
		<polygon class="st14" points="418,465.2 382.3,444.6 386.8,403.8 413.5,419.3 		"/>
		<polygon class="st14" points="418,465.2 427.3,460 422.8,414.1 413.5,419.3 		"/>
		<polygon class="st17" points="386.8,403.8 396,398.7 395,408.6 		"/>
		<path class="st14" d="M406.8,415.3l-1.6-1c0-3.8-2.3-8.3-5-9.9s-5,0.2-5,4.1l-1.6-1c0-4.9,3-7.1,6.7-5S406.8,410.4,406.8,415.3z"
			/>
		<path class="st14" d="M415.5,410l-1.6-1c0-3.9-2.3-8.3-5-9.9s-5,0.2-5,4.1l-1.6-1c0-4.9,3-7.1,6.7-5S415.5,405.1,415.5,410z"/>
		<g id="Girl_4">
			<path id="_Контур_6" class="st7" d="M395.3,380.3c2,0.6,3.1,2.8,4.8,7.4c1.4,4.2,2.2,8.7,2.1,13.2
				c-0.5,4.4-2.4,7.8-6.8,11.4l-2.1-3.9c0,0,4.3-3.8,4.8-8.2c0.3-2.5-2.6-10.8-2.6-11S395.3,380.3,395.3,380.3z"/>
			<path class="st9" d="M378.1,481.7c-1.3,0.4-2.8,0.2-4-0.5c-1.1,0-7.4-2.5-8.2-0.4c-0.7,1.8,1.8,3.5,3.2,3.9
				c3,0.7,5.1,2.2,6.3,2.4c0.9,0.3,1.9,0.2,2.7-0.4C379,485.9,378.9,482.8,378.1,481.7z"/>
			<path class="st10" d="M375.4,486.6c-1.2-0.3-3.4-1.7-6.3-2.4c-1.1-0.3-3.1-1.5-3.3-3c-0.3,1.7,2,3.2,3.3,3.5
				c3,0.7,5.1,2.2,6.3,2.4c0.9,0.3,1.9,0.2,2.7-0.4c0.2-0.2,0.3-0.4,0.4-0.7C377.6,486.7,376.5,486.9,375.4,486.6z"/>
			<path class="st9" d="M394.1,473.4c-1.2,0.4-2.5,0.2-3.5-0.5c-1,0-7.5-2.4-8.3-0.4c-0.7,1.8,1.8,3.4,3.1,3.7
				c2.8,0.7,5,2.1,6.1,2.4c0.9,0.3,1.9,0.2,2.6-0.4C395,477.4,394.9,474.4,394.1,473.4z"/>
			<path class="st10" d="M391.5,478.1c-1.1-0.2-3.3-1.7-6.1-2.4c-1.1-0.3-3-1.5-3.2-2.9c-0.3,1.6,2,3.1,3.2,3.4
				c2.8,0.7,5,2.1,6.1,2.4c0.9,0.3,1.9,0.2,2.6-0.4c0.2-0.2,0.3-0.4,0.4-0.7C393.7,478.2,392.6,478.4,391.5,478.1z"/>
			<path id="_Контур_7" class="st7" d="M396.2,457.3c0-2.4-0.4-4.8-1.2-7.1c0,0,0.8-9.8,1.5-16.1c0.9-9.4,2.4-10.4,2-16.1
				c-0.4-5.3-3.4-8.8-4.2-12.4l-15.4,1.2c0,0-1.3,4.4-3.1,13.1s-1.8,19-1.7,32.8c0,3.5-0.6,6.6-0.4,15.4c0.1,5.9,0.5,13.2,0.5,13.2
				c2.3,1.9,3.8,0.5,3.8,0.5s4-17.5,4.5-21.5c0.4-2.2,0.2-4.5-0.5-6.6c0,0,1.2-5.5,2-9.8c1-5.3,3.6-16.7,3.6-16.7s-0.4,17.5,0.3,21
				s0.9,6.5,1.5,11.2c0.8,5.7,1.1,14,1.1,14c2.4,1.5,3.4,0.3,3.4,0.3S396.2,462.3,396.2,457.3z"/>
			<path class="st11" d="M394.2,405.6c1.6,1.6,4.3,6.7,4.3,14.3c0,8.6-1.3,6.8-1.8,16.3l-0.6,9.4c0,0-12.9,6.1-22,0.4
				c-0.8-1.8,0.3-21.6,1.9-28.7s2.7-10.5,2.7-10.5S390.5,410,394.2,405.6z"/>
			<path id="_Контур_8" class="st7" d="M394.4,380.2c-3.3-0.2-3.6,0.4-3.9-0.8c-0.1-0.4-0.3-3.3-0.3-3.3
				c0.3-0.4,0.6-0.8,0.8-1.2c4-2.4,5.2-7.6,2.8-11.6c-1.4-2.2-3.7-3.7-6.3-4c-4.4-0.5-7.6,2.6-8.4,6.8c-0.5,2.1-0.9,6.3,0.4,9.7
				c0.7,1.9,1.4,3.3,3.1,3.2c0.6-0.1,1.1-0.2,1.7-0.3c0.1,0.8,0.1,1.6,0.1,2.4c0,0.8,0.1,1.3-1.5,2.3s2.5,3.1,5.2,2.9
				s5.7-1.8,6.6-3.6C395.6,380.8,395.9,380.3,394.4,380.2z"/>
			<path class="st8" d="M396.8,394.8c0,0,3.7-0.8,5.4-2.5c0,0-2.2-7-3.6-8.7s-2.8,9.5-2.8,9.5L396.8,394.8z"/>
			<path id="_Контур_9" class="st12" d="M391.1,380.1c0.6,0.8,0.7,1.7-1.7,2.3c-1.7,0.5-3.5,0.3-5.1-0.4
				c-1.8,0.8-3.6,1.7-5.3,2.8c-2,6.6-0.4,7.4-1.2,12.1c0.3,2.4,0.7,8.5,0.8,9.9c4.5,3.1,13.5,2.1,15.6-1.3c0-1.1,0.1-2.2,0.3-3.3
				c2.1-7.9,3.8-10,3.2-16c-0.3-3.4-0.6-5.1-2.4-6C393.9,380.1,392.5,380,391.1,380.1z"/>
			<path id="_Контур_10" class="st7" d="M350.1,405.8c1,0.2,2,0.5,3,0.9c0.9,0.5,1.9,0.8,2.9,1c1.1,0.2,2.8-0.4,5.8-1.8
				c3.2-1.7,6.2-3.9,8.7-6.5c2.8-3.4,5.4-7,7.6-10.8c1.3-2.3,2.9-2.9,4.3-2.5c1.7,0.6,1.9,2.2,0,5.4c-2.4,4.1-5.3,7.9-8.7,11.3
				c-2.6,2.6-5.7,4.8-9,6.4c-2.4,1.2-5,2.1-7.6,2.6c-0.9,0.2-1.6,0.6-3.3,1.2c-1.7,0.6-3.5,0.8-5.3,0.6c-1.5-0.3-2-0.6-2.1-1
				s0.3-0.6,0.9-0.6c1.1,0.2,2.2,0.1,3.3-0.1c0,0-1.5,0-2.4-0.2c-0.8-0.1-1.6-0.3-2.4-0.6c-0.7-0.3-1-1.5-0.3-1.4s1.2,0.3,2.6,0.4
				c0.7,0.1,1.4,0.1,2.2,0c-0.9-0.1-1.8-0.4-2.6-0.6c-0.7-0.2-1.3-0.6-1.8-1.1c-0.3-0.3-0.2-1,0.7-0.8c1,0.4,2.1,0.6,3.2,0.7
				c1.1,0,1.9-0.1,1.8-0.3s-0.8-0.1-1.6-0.6s-1.3-1.4-1-1.8S349.2,405.5,350.1,405.8z"/>
			<path class="st8" d="M380.5,395.3c-2.6-0.4-5-1.6-6.8-3.5l4.1-5.7c0,0,2.3-2.9,5.4-1.3c0,0,2.3,0.3,0,5.1
				C382.4,391.8,381.5,393.6,380.5,395.3z"/>
			<path class="st13" d="M378.3,363.7c0.3-2,2.3-3.4,4.3-3.1c1.4-1,3.2-1.4,4.9-1.2c3.9,0.4,6.5,2.9,7.7,6.9c0.6,2,1,4,1.1,6
				c1.2,8.7,4.3,15.6,1.4,18.2s-11.1,4.2-14.4,2.6s2.8-16.6-3.9-25C377.8,366,377.7,364.7,378.3,363.7z"/>
		</g>
		<g id="Men_13">
			<path class="st9" d="M11,360.5c1.5,1.2,3.8,0.1,3.9,0.2c1.8,1.7,3.7,3.2,5.6,4.7c1,0.8,2.4,1.8,2.2,3.2c-0.5,2.6-4.6,1.8-6.1,1
				s-2.8-2.1-4.3-3c-1-0.6-2.1-1-2.2-2.3C9.9,363.4,10.7,360.4,11,360.5z"/>
			<path class="st10" d="M10,363.7c0.2,1.3,1.2,1.6,2.3,2.3c1.5,0.9,2.8,2.3,4.4,3s5,1.5,6-0.4c-0.5,2.5-4.6,1.7-6.1,0.9
				s-2.8-2.1-4.3-3c-1-0.6-2.1-1-2.2-2.3C9.9,364,10,363.9,10,363.7z"/>
			<path class="st9" d="M24.2,355.5c1.5,1.2,4.2-0.1,4.3,0c1.6,1.6,3.2,3.1,5,4.5c1,0.8,2.4,1.8,2.2,3.2c-0.5,2.6-4.6,1.8-6.1,1
				s-2.8-2.1-4.3-3c-1-0.6-2.1-1-2.2-2.3C22.9,358.1,23.9,355.5,24.2,355.5z"/>
			<path class="st10" d="M23.1,358.6c0.2,1.3,1.2,1.6,2.3,2.3c1.5,0.9,2.8,2.3,4.4,3s5,1.4,6-0.4c-0.5,2.5-4.6,1.7-6.1,0.9
				s-2.8-2.1-4.3-3c-1-0.6-2.1-1-2.2-2.3C23,358.9,23,358.7,23.1,358.6z"/>
			<path id="_Контур_11" class="st11" d="M10.9,304.1c0.1,2.3,0.8,12.3,1.1,17.6s0.4,11.8,0.4,11.8s-0.9,3.9-1.5,8.4
				s0,18.9,0,18.9c1.2,0.8,2.7,0.8,3.9,0c0,0,2.4-11.5,3.6-16.6s1.3-8.1,1.9-11.4c0.7-3.9,2.2-22,2.2-22h0.6l1.6,20.4
				c-0.5,1.5-0.8,3.1-1,4.6c-0.4,3.3,0.5,20,0.5,20c1.3,0.7,3,0.7,4.2-0.2c0,0,4.1-22.2,4.1-25.5c0-2.2-0.4-31.6-0.4-31.6
				L10.9,304.1z"/>
			<path id="_Контур_12" class="st7" d="M16.4,259.6c0,0,0.3,5,0.1,5.5s-2.3,1.9-2.9,2.5s3.5,4.6,5.5,5.5s8.3-1.5,8.5-4.6
				s-1.1-5.7-2.1-5.9S16.4,259.6,16.4,259.6z"/>
			<path class="st7" d="M30.2,268.9c0.3-2.2-1.2-4.3,0.3-6.1c5,4.9,4.3,17.7,5.5,26c3.7,3.9,11.1,7.6,13.2,8.6
				c0.4,0.2,0.7,0.4,0.6,0.8c-0.3,1.4-0.9,2.6-1.7,3.8c-4.9-2.1-8.4-3.3-14.6-9.1c-0.6-0.6-1.1-1.3-1.5-2
				C30.1,285.5,29.7,272.7,30.2,268.9z"/>
			<path id="_Контур_13" class="st12" d="M15.8,265.9c0,0,3.6,5.4,8.7,6c1.6-1.6,1.8-7.2-0.5-9c0,0,2-1.6,3.4-1.3
				c1.5,0.9,2.6,2.3,3.1,4c1.3,3.7,1.9,7.7,1.8,11.6c-0.1,5.3,0,21.6,0,21.6s-0.7,3.5-5.3,6s-8,2.8-11.1,2.1
				c-2.6-0.6-4.7-1.5-5.6-3.4c0.2-3.7,1.9-13.5,1.3-18.2s-1.6-8.2-1.9-12s0.5-3.7,2.4-5.1C13.4,267.4,14.6,266.6,15.8,265.9z"/>
			<path id="_Контур_14" class="st7" d="M27.8,252.1L27.8,252.1c-0.6-3.9-3.4-6.9-7.4-6.6c-4.3,0.2-7.6,3.8-7.3,8.1
				c0.1,2.4,1.4,4.7,3.4,6c0.1,0.6,0.4,1.2,0.6,1.7c1.4,1.7,5.7,2.7,7,2.5c1.5-0.1,2.8-1.2,3.2-2.6C28.5,258.1,28.1,254,27.8,252.1z
				"/>
			<path class="st13" d="M16.4,259.6L16.4,259.6l0.4-3.4c0,0-2.8-7.2,3.8-5.8c4.3,0.9,5.4,1.3,6.8-1.6s-3.3-5.5-8.9-4.8
				c-4,0.4-6.9,3.8-6.9,7.8C11.7,253.8,12.3,258.2,16.4,259.6z"/>
			<path class="st7" d="M8.7,271.1c1.9-0.5,0.5-0.1,1.9-0.5c5,4.9,4.3,13.2,5.5,21.5c2.7,4.5,12.9,10.7,12.9,10.7
				c0.1,0.9-0.2,1.1-1.3,2.9c-5.7-2.2-10.8-5.5-15.1-9.8c-0.2-0.2-0.6-0.3-0.7-0.6C10.1,289.9,8.2,274.9,8.7,271.1z"/>
			<polygon class="st12" points="54,281.2 46.5,306.5 30.3,313 36.3,288.4 			"/>
			<path class="st7" d="M26.4,302.8c0.2-0.9,0.9-0.6,1.6-0.4c0.8,0.3,1.6,0.4,2.4,0.2c0.6-0.3,1.2-0.7,1.7-1.2
				c0.3-0.2,0.7-0.3,1.1-0.3c0,0.2-0.4,1.5-0.4,1.5s3.5,0,3.9,0c0.3-0.1,0.6,0.1,0.7,0.5c0,0.2,0,0.4-0.2,0.5h0.2
				c0.7-0.2,1,1,0.3,1.1l-0.6,0.1c0.5,0.2,0.6,1,0,1.1h-0.2c-0.1,0-0.2,0-0.3,0h-0.1c0.1,0.3-0.2,0.7-0.5,0.8c0,0,0,0,0,0
				c-1.7,0.2-4.3,0.9-5.9-0.5c-1.1-0.1-2.2-0.4-3.1-0.9C26.2,304.8,26.1,303.9,26.4,302.8z"/>
			<path class="st7" d="M44.2,300.8h0.2c-0.3-0.2-0.3-0.6-0.1-0.8c0.1-0.2,0.3-0.3,0.5-0.3c0.4,0,4-0.8,4-0.8l0.4-1.5
				c0-0.1,0.6,0.3,0.7,0.3c0.6,0.4,1.1,1.1,1.2,1.8c0,1-0.3,2.1-1,2.8c-0.7,0.7-1.5,1-2.5,1.1l-1.3,0.1c-0.3,0-0.7-0.2-0.7-0.6
				c0,0,0,0,0,0h-0.2c-0.1,0-0.2,0-0.3,0H45c-0.6,0-0.7-0.8-0.3-1.1c-0.2,0-0.4,0-0.6,0C43.4,301.9,43.4,300.8,44.2,300.8z"/>
			<path class="st8" d="M32.2,272.2c1,0,2-0.5,2.7-1.2c-0.1-1.9-2.5-9-7.3-9.5c1.3,0.9,2.3,2.2,3,3.6
				C31.3,267.4,31.8,269.8,32.2,272.2z"/>
			<path class="st8" d="M7.8,281.6c0,0,4.8,1.6,8.1-1.1c0.4-0.6-2-8.8-2-8.8s-2-4.2-5.1-2.5S7.8,281.6,7.8,281.6z"/>
		</g>
	</g>
</g>
</svg>
